# xmcd
#
# Track frame offsets:
#	150
#	12167
#	28705
#	45750
#	57175
#	69947
#	83952
#	101257
#	116075
#	134087
#
# Disc length: 2035 seconds
#
# Revision: 7
# Processed by: cddbd v1.5.1PL2 Copyright (c) Steve Scherf et al.
# Submitted via: dBpowerAMP V4.0
#
DISCID=7907f10a
DTITLE=Travis Tritt - It's All About To Change
DYEAR=1991
DGENRE=Country
TTITLE0=The Whiskey Ain't Workin' [Featuring Marty Stuart]
TTITLE1=Don't Give Your Heart To A Rambler
TTITLE2=Anymore
TTITLE3=Here's A Quarter (Call Somone Who Cares)
TTITLE4=Bible Belt [Featuring Little Feat]
TTITLE5=It's All About To Change
TTITLE6=Nothing Short Of Dying
TTITLE7=If Hell Had A Jukebox
TTITLE8=Someone For Me
TTITLE9=Homesick
EXTD=year added
EXTT0=
EXTT1=
EXTT2=
EXTT3=
EXTT4=
EXTT5=
EXTT6=
EXTT7=
EXTT8=
EXTT9=
PLAYORDER=
